<svg xmlns="http://www.w3.org/2000/svg" viewBox="0 0 176 92"><defs><style>.cls-1,.cls-3{fill:#fff;}.cls-2{font-size:45.46px;fill:#fc3b3d;font-family:Calibri-Bold, Calibri;}.cls-2,.cls-3{font-weight:700;}.cls-3{font-size:47.15px;font-family:Calibri-BoldItalic, Calibri;font-style:italic;}</style></defs><g id="Layer_2" data-name="Layer 2"><g id="OBJECTS"><rect class="cls-1" x="6.85" y="40.45" width="11.29" height="49.33"/><polygon class="cls-1" points="45.67 58.85 31.15 58.85 31.15 40.45 19.86 40.45 19.86 89.78 31.15 89.78 31.15 71.39 42.23 71.39 45.67 58.85"/><circle class="cls-1" cx="6.42" cy="63.69" r="6.42"/><rect class="cls-1" x="158.39" y="40.45" width="11.29" height="49.33"/><polygon class="cls-1" points="145.38 40.45 145.38 58.85 133.69 58.85 130.25 71.39 145.38 71.39 145.38 89.78 156.67 89.78 156.67 40.45 145.38 40.45"/><path class="cls-1" d="M176,63.69a6.43,6.43,0,1,1-6.43-6.42A6.43,6.43,0,0,1,176,63.69Z"/><text class="cls-2" transform="translate(2.25 37.09) scale(0.88 1)">INTENSITY</text><text class="cls-3" transform="translate(46.82 77.56) scale(0.85 1)">GYM</text></g></g></svg>